
<global>
amp_veltrack=0
ampeg_attack=0.01
ampeg_release=0.25
</global>

<group>
amp_veltrack=0
group_label=Group_0-42
lpc_hicc1=42
lpc_locc1=0

<region>
hikey=d4
hivel=127
lokey=c#4
loop_end=257291
loop_mode=loop_continuous
loop_start=89451
loop_xfade=36476
lovel=1
lpc=Y6DUQjfEacNzni9DS+2nwpyXfEKlo8bB4vCiwC+iFkEelZbAoemiwRMxaUEwHfJAzXNtQcrMKsDuLwHC4nGLQbJRQMF5BLJB5Ar9wBO3Rz8PgynA811wwBAf+MDmOj5B
lpc_rms=-24.20
offset=6229
pitch_keycenter=d4
sample=Baritone_growl_PP_D4.opus
tune=-14
</region>

<region>
hikey=e4
hivel=127
lokey=d#4
loop_end=239504
loop_mode=loop_continuous
loop_start=83267
loop_xfade=33955
lovel=1
lpc=3m0JQsOCr8LNMbNC3eB8wmBwQkLmFN/BqX0kQfmTv8AVaIhAgcawwDvEuUBtdNzAI9Q1QZKeCsEDz8c/Yinyv85kVkCvrQe/kWvLv18BTkBtGEvA46TUPoStxj+3eQu/
lpc_rms=-32.16
offset=229
pitch_keycenter=e4
sample=Baritone_growl_PP_E4.opus
tune=-26
</region>

<region>
hikey=f#4
hivel=127
lokey=f4
loop_end=243361
loop_mode=loop_continuous
loop_start=84608
loop_xfade=34501
lovel=1
lpc=laIhQm9NusJhiZRC//McwiwcHUKeeb/BZtsTQRtBcMFLxi9BTJHmwN3VCkET1YfAPPAoQASjPEC42PbArqP+v/36K0DX7t0/rgiaQIAkVr9spwXBQDvdQEKCmMDIFFNA
lpc_rms=-28.11
offset=913
pitch_keycenter=f#4
sample=Baritone_growl_PP_F#4.opus
tune=-41
</region>

<region>
hikey=B4
hivel=127
lokey=g4
loop_end=226322
loop_mode=loop_continuous
loop_start=78684
loop_xfade=32086
lovel=1
lpc=xQGMQgWeLcM8jypDCxTWwnACiULfbQbCPYrJQBNNAUB+o6g/RW+mwLGNGMDIurFAcKMZQPQu1D/sj4PBGy5CQX7yWb91gRM/IDC+QNyfl8AiNYO/DPKTQECRZMEWnSpB
lpc_rms=-23.86
offset=8295
pitch_keycenter=g#4
sample=Baritone_growl_PP_G#4.opus
tune=-46
</region>

<region>
hikey=a#2
hivel=127
lokey=a2
loop_end=266591
loop_mode=loop_continuous
loop_start=92684
loop_xfade=37795
lovel=1
lpc=3MdDQmCA6MIJWd5CfIGlwsRqdkKXyvbB5IMxQWJRvcDGXjNBhuOUwSzFeUHzzbjACrQAQB+oVUCdnwzBeMBJQN1iuL/isFRAnOIOwND2skAE9oXAs77tPtdRFMDQ5+U/
lpc_rms=-27.56
offset=2045
pitch_keycenter=a#2
sample=Baritone_growl_PP_A#2.opus
tune=-3
</region>

<region>
hikey=a#3
hivel=127
lokey=a3
loop_end=242610
loop_mode=loop_continuous
loop_start=84347
loop_xfade=34395
lovel=1
lpc=NnNKQtsz/sKDDt5Ct+9fwuThPkLuiPvBJPTvQI7MU8GIfZVBaoJ6weFpc0HJm0nBIn7AQHtP6kAc1R7BJoCSPlZ1A8AEJ7tANOFRP01SycBvo8FAUK6+wLSTuEBMPBTA
lpc_rms=-30.52
offset=2180
pitch_keycenter=a#3
sample=Baritone_growl_PP_A#3.opus
tune=-13
</region>

<region>
hivel=127
key=c2
loop_end=262838
loop_mode=loop_continuous
loop_start=91379
loop_xfade=37263
lovel=1
lpc=18aMQinKPsPdAFtDRlQnwzlX10JouHDCskDeQQgsgcFG2OtBAqQkwuqwJEJV2vvBvKF7QcWrJUGIigrCzX0IQp/Vq8GIeBJAYB9mQf17fsHMQ5ZAvmgyQVa2U8FxVItA
lpc_rms=-23.66
offset=2706
sample=Baritone_growl_PP_C2.opus
tune=+12
</region>

<region>
hikey=c3
hivel=127
lokey=b2
loop_end=259434
loop_mode=loop_continuous
loop_start=90196
loop_xfade=36780
lovel=1
lpc=ARhNQrtnB8PflxxDSKTzwqQ3ikKS7O7B7tk4QT/G0b/zcztAqAI5wcakqkGrUonBcfTnQDDyg0DFPinB+KHmPzyamUBfixDBeNUsQX1ByMAhI1FA586PvxQosr6QPlI+
lpc_rms=-27.93
offset=2775
pitch_keycenter=c3
sample=Baritone_growl_PP_C3.opus
</region>

<region>
hikey=c4
hivel=127
lokey=b3
loop_end=245162
loop_mode=loop_continuous
loop_start=85234
loop_xfade=34757
lovel=1
lpc=6T2LQnaSMcOowiRDA4+1wkR/ZkI9oN/BX8UoQTDWXcHNQldBer+dwYaBrkHXvCLBw7BjQb/ZwMAd2YvBJIvYQCEw8EAJua4/KaXPv2h8lr/sbro/dc8Fwa0hrECgiik/
lpc_rms=-28.31
pitch_keycenter=c4
sample=Baritone_growl_PP_C4.opus
tune=-18
</region>

<region>
hikey=d2
hivel=127
lokey=c#2
loop_end=258754
loop_mode=loop_continuous
loop_start=89959
loop_xfade=36684
lovel=1
lpc=zeGBQgzHM8OOklND5hElw3Yg6EI2zpvC3KUmQklY5sHQfRhCn40hwkRrB0JqWbLBoUWBQe6kEUDNFObBaRb3QVeCcMETnQY/3SfUQFvIDcEOy6dADwp5P4q8kMA7XTBA
lpc_rms=-25.11
offset=1851
pitch_keycenter=d2
sample=Baritone_growl_PP_D2.opus
tune=+2
</region>

<region>
hikey=d3
hivel=127
lokey=c#3
loop_end=255402
loop_mode=loop_continuous
loop_start=88794
loop_xfade=36208
lovel=1
lpc=kiqeQgvDOMPF5x5D4rCywmXhd0IghwnCUQcTQes6ScFVltBBNTTDwY62ekFOayrBT6/IQMP1q0BQsbfA1D0QwQ2SQkEH0om/kH27PyHDfsAm5AjApjlKwCXsDEFhDVvA
lpc_rms=-25.50
offset=4977
pitch_keycenter=d3
sample=Baritone_growl_PP_D3.opus
tune=-2
</region>

<region>
hikey=e2
hivel=127
lokey=d#2
loop_end=259826
loop_mode=loop_continuous
loop_start=90332
loop_xfade=36836
lovel=1
lpc=5NiAQmDbI8NYPShD9fngwmwjh0Jn2BXCPsGQQRisYcHLkaNBv8arwWeTp0FvFDDB6WNhQBWz7kB0O7jBETOeQbsz2cDjmhnBcTmeQekGdMFOBlpAcMGfQFqmU8AtfmM+
lpc_rms=-28.01
offset=1906
pitch_keycenter=e2
sample=Baritone_growl_PP_E2.opus
tune=+1
</region>

<region>
hikey=e3
hivel=127
lokey=d#3
loop_end=246101
loop_mode=loop_continuous
loop_start=85560
loop_xfade=34890
lovel=1
lpc=Vs8yQvsUxML5E5tCTlQownUi6UFPA0rBW+eYwIm4r0DCte1A6/lxwT5/VUFcgrXAYRmCP5iXd0B3mKLA0gAxwJQ8tkAmt56/irbWPz4yEMCXM+S/n+7aP4GSIr/NQT8/
lpc_rms=-30.72
offset=85
pitch_keycenter=e3
sample=Baritone_growl_PP_E3.opus
tune=+12
</region>

<region>
hikey=f#2
hivel=127
lokey=f2
loop_end=257967
loop_mode=loop_continuous
loop_start=89686
loop_xfade=36572
lovel=1
lpc=wkCXQrCiNMPLpCJD9d29wk+vWkJNv+TBmt+TQcMJmcFC4KRBS+5CwZ4uxkB+g/ZAo5hVwYoVfUHt/+vB+SF/QTk6s0CaTkHBKFEgQVp+eMBlxug/qUj6P2bMwb9Vyo2/
lpc_rms=-28.21
offset=3581
pitch_keycenter=f#2
sample=Baritone_growl_PP_F#2.opus
tune=-5
</region>

<region>
hikey=f#3
hivel=127
lokey=f3
loop_end=256394
loop_mode=loop_continuous
loop_start=89139
loop_xfade=36349
lovel=1
lpc=L5nhQufph8PbTmBDXo7iwjsMr0KkHVPCBZUGQrMiHsLqtQtCEuIGwpkFsEERKgM/eHe3wOnUYUEcysfBD2PvQPZTc0F51I/BjsiVQYxJQcHZdM8/Y1f3wBBdD0Gm/OG/
lpc_rms=-24.32
offset=2585
pitch_keycenter=f#3
sample=Baritone_growl_PP_F#3.opus
tune=-11
</region>

<region>
hikey=g#2
hivel=127
lokey=g2
loop_end=255538
loop_mode=loop_continuous
loop_start=88841
loop_xfade=36228
lovel=1
lpc=FQN7Qjo5GcOPhQtDXhSdwqB/TUKZBxTCdP6sQVYIfcGDDYRBMpIXwRudCb6MNyNBF9fvwN0IBEHeKZrBvxg3QQA3QkD2JKfADtLmP82jur4/mTy/SUZMQEL/oMDG0jFA
lpc_rms=-28.06
pitch_keycenter=g#2
sample=Baritone_growl_PP_G#2.opus
tune=-3
</region>

<region>
hikey=g#3
hivel=127
lokey=g3
loop_end=250180
loop_mode=loop_continuous
loop_start=86979
loop_xfade=35468
lovel=1
lpc=3p4FQhkolcLnCm9CxH37wZP7vUE4N1DBIVNQQGfl1sDXqBRB4TMQwY4LGkH62a7ADuc9QLFDL0B4pqfAWepuv00mpEAhJz/A9B9JQAlPl8DhteM/M/u/v7L9Lr/t0gZA
lpc_rms=-36.18
pitch_keycenter=g#3
sample=Baritone_growl_PP_G#3.opus
tune=-10
</region>
</group>

<group>
amp_veltrack=0
group_label=Group_43-84
lpc_hicc1=84
lpc_locc1=43

<region>
hikey=B4
hivel=127
lokey=a4
loop_end=241172
loop_mode=loop_continuous
loop_start=83847
loop_xfade=34191
lovel=1
lpc=UjQzQWB508GNvu9BksK2wdrOYEGivpfAzq4qvjMu7L8kJUtALuMIwBfFuT80ZJ2/Up1Kv58FA0DwdxfA4uxDQGWFH8CdjGY+wUmSP2MtwD3y5YK/5/JEQM/kXMCiEOY/
lpc_rms=-17.62
offset=413
pitch_keycenter=A#4
sample=Baritone_growl_MF_A#4.opus
tune=+32
</region>

<region>
hikey=c4
hivel=127
lokey=b3
loop_end=246104
loop_mode=loop_continuous
loop_start=85561
loop_xfade=34890
lovel=1
lpc=wBYgQQS4xcG80t9BP3ylwVhqMEHi9Y3AX7NoQOYi+8DrixFBxnbdwM2flkB2riHAU5eaP/uLgD7Z0OW/5aFwQGCQosCbR6ZANNyQwM+cTkDAIdy/yoorPxFEEb/WprU+
lpc_rms=-18.11
offset=2670
pitch_keycenter=c4
sample=Baritone_growl_MF_C4.opus
tune=+9
</region>

<region>
hikey=d4
hivel=127
lokey=c#4
loop_end=257800
loop_mode=loop_continuous
loop_start=89628
loop_xfade=36548
lovel=1
lpc=ry8zQRDx2cEDwOZBrE+ZwQ+AJUE197bAYuDnQHpmdsE0qJFBS19JwWPYx0AgwyXAerdQP/Fg/b4VrEM/EtgPQAIMk8BYpxZAac5bv6hRhD/D83U9ZCSyPg/ACMAZJ7c/
lpc_rms=-17.60
offset=1955
pitch_keycenter=d4
sample=Baritone_growl_MF_D4.opus
tune=+12
</region>

<region>
hikey=e4
hivel=127
lokey=d#4
loop_end=248990
loop_mode=loop_continuous
loop_start=86565
loop_xfade=35299
lovel=1
lpc=ZcraQMXtgMFC/I5BdehZwfF4BUHnr4DACd4NQKY9ccBsXJdAb0qBwDcYYECdPxvAlg6KPgcsoj/Fq2u/4tzKPlaiEj2r44a/UKxLPxFLtj49HRC/RCbJPnLTd75po0E+
lpc_rms=-20.28
offset=1704
pitch_keycenter=e4
sample=Baritone_growl_MF_E4.opus
tune=-13
</region>

<region>
hikey=f#4
hivel=127
lokey=f4
loop_end=245737
loop_mode=loop_continuous
loop_start=85434
loop_xfade=34838
lovel=1
lpc=uvm+QPjdUMGf5kdBaMXwwI+bT0C9JY69hFnxvhvYPcCuLshAx/bNwDholUBydyLAdrPuPld7ez+QhwO/977wvpDtPz9q/uS+zlODv9pPA0DekArAAIcrQJWoFcAvDXQ/
lpc_rms=-21.88
offset=1683
pitch_keycenter=f#4
sample=Baritone_growl_MF_F#4.opus
tune=-28
</region>

<region>
hikey=g#4
hivel=127
lokey=g4
loop_end=219497
loop_mode=loop_continuous
loop_start=76311
loop_xfade=31118
lovel=1
lpc=+lRwQeTgDsKlDhVCY1G0wWT3JkEpY4HAynnsPd9F87+rva5AO6LmwN0j/EBDeALBqAOHQErrG0CURrTAdkOrQE5ayb/ysm3ArqySQKBsDsCRBqo/J9GWP79YQMBlwvY/
lpc_rms=-15.43
offset=5611
pitch_keycenter=g#4
sample=Baritone_growl_MF_G#4.opus
tune=-24
</region>

<region>
hikey=a#2
hivel=127
lokey=a2
loop_end=256287
loop_mode=loop_continuous
loop_start=89101
loop_xfade=36334
lovel=1
lpc=oZxXQcVYA8JOJxJC/vr2wdWby0F7dpnBPI5KQfxjN8Eo2hRBDej9v2VjQb/YD7K/BSjkv5tg+0DuOdvAi99EQK75hr+G//u/RJlMQPIF7L73kGC/kRCBPjhcVL1YNna9
lpc_rms=-18.83
offset=5221
pitch_keycenter=a#2
sample=Baritone_growl_MF_A#2.opus
tune=+20
</region>

<region>
hikey=a#3
hivel=127
lokey=a3
loop_end=221774
loop_mode=loop_continuous
loop_start=77103
loop_xfade=31441
lovel=1
lpc=hE84QQgIzcFT2LFBS9ZGwXzmA0Hc45jA4O4sQEwN6cBc+BlB7dyswOgmP0AxZ0DA8W9NPR5Cj0CU5YbA6LgfQMaFHMBbuxA/mR8DP8X/cz8dtCy+HgcDwLRAC0CnKWi/
lpc_rms=-18.82
offset=4572
pitch_keycenter=a#3
sample=Baritone_growl_MF_A#3.opus
tune=+18
</region>

<region>
hivel=127
key=c2
loop_end=252977
loop_mode=loop_continuous
loop_start=87951
loop_xfade=35865
lovel=1
lpc=bJrkQe4NmMLWoa9CnKqDwntvNELNqQ7CvJnBQYTUocFPFM5BWdqbwRgKT0CK0xdAdx3pP/r/gECW3TjB25IqQS5WyMC9xOY/oJHcP1A1d8A+As8/sHMXQN5mT8DEfJ8/
lpc_rms=-18.05
offset=43653
sample=Baritone_growl_MF_C2.opus
tune=+16
</region>

<region>
hikey=c3
hivel=127
lokey=b2
loop_end=260467
loop_mode=loop_continuous
loop_start=90555
loop_xfade=36927
lovel=1
lpc=YFMpQdKzy8EA0NxBjQOhwWhtP0GuIdDALbKMQEYP78A8bh5BWQv0wJaGtkBsEK/A1J50QPZgs7/KKK4/QbQEwDnj2j8inui/tFySP5qBMj8j6ni/hCsFP0nAtL4yexI+
lpc_rms=-20.68
offset=5335
pitch_keycenter=c3
sample=Baritone_growl_MF_C3.opus
tune=+23
</region>

<region>
hikey=d2
hivel=127
lokey=c#2
loop_end=250365
loop_mode=loop_continuous
loop_start=94173
loop_xfade=35494
lovel=1
lpc=n/fYQa5Qk8Je961Cf++FwqOwO0LsNgXCNeeUQftOrcHTcyRCMTUxwh7P2UHpQW3Bz0w9QSOAa78HBQXBgZa2QDvAfsDM2wpBrMRHwWU9UUEoAlbBEB5BQVKf4sBuMeI/
lpc_rms=-19.74
offset=54315
pitch_keycenter=d2
sample=Baritone_growl_MF_D2.opus
tune=+13
</region>

<region>
hikey=d3
hivel=127
lokey=c#3
loop_end=263048
loop_mode=loop_continuous
loop_start=91452
loop_xfade=37293
lovel=1
lpc=p3AqQSylzMGi1OBBB4eqwR/7VkED9eDAZRGLQGjC/cDAWCZB56cBwagIukDgmZfACasLQJF0K78dUAtAlugTwB8PuD/yjhPAQCrbP5GGrT7gkW29lx/fvhzHsr2uMjg+
lpc_rms=-18.47
offset=5903
pitch_keycenter=d3
sample=Baritone_growl_MF_D3.opus
tune=+14
</region>

<region>
hikey=e2
hivel=127
lokey=d#2
loop_end=259158
loop_mode=loop_continuous
loop_start=90100
loop_xfade=36741
lovel=1
lpc=Mdx5QUqqJ8LFqU1Ce/QhwgFcu0ET/iHBY9uTQC78QsFjNrVBWzK0wY30ZUFs4crA5ixhPABBhUCYhNW/B9EBwPSpI0AvsFvAJVF1QGwg17/nIFM/JAYKwD0QG0DBone/
lpc_rms=-20.94
offset=19669
pitch_keycenter=e2
sample=Baritone_growl_MF_E2.opus
tune=+3
</region>

<region>
hikey=e3
hivel=127
lokey=d#3
loop_end=251682
loop_mode=loop_continuous
loop_start=87501
loop_xfade=35681
lovel=1
lpc=Qs0XQYJjr8E0YrdBTUWEwVvBEkHhF0zAw13XP59/0MA9TBFBxiHOwH59c0DxbOi/vBsSvlI3IT82E5s/HdyJv0Qerj6w3HC/A/4Jv3mtMkASh0jA9k5RQIQvWMDCHcY/
lpc_rms=-21.43
offset=250
pitch_keycenter=e3
sample=Baritone_growl_MF_E3.opus
tune=+22
</region>

<region>
hikey=f#2
hivel=127
lokey=f2
loop_end=252926
loop_mode=loop_continuous
loop_start=87933
loop_xfade=35858
lovel=1
lpc=0r1uQcgED8LohRJCgNnBwfSXcUG62DzBlmArQeGXgcGc6qFBLUxMwVKagEDmvoDA+O6kQFgbGb88q86/EGUNP5x9Ab+TKRG/iTOtP4QQ2z9Rcq7A9fDMQCSqh8CmzpQ/
lpc_rms=-21.51
offset=6426
pitch_keycenter=f#2
sample=Baritone_growl_MF_F#2.opus
tune=+5
</region>

<region>
hikey=f#3
hivel=127
lokey=f3
loop_end=251440
loop_mode=loop_continuous
loop_start=87416
loop_xfade=35647
lovel=1
lpc=+oqEQaZuIcJweSdCg/zNwQGPM0GEQ5vA7gSqQFh8Z8GjMaJB+3ZVwfpMfEBxsDy/kv+EvxOAtkDfk+TAUoLcQKJb2cBGDIlAGWJjwDIUykDjstnAUZmUQHCjPcCEDKk/
lpc_rms=-16.60
offset=5245
pitch_keycenter=f#3
sample=Baritone_growl_MF_F#3.opus
tune=+9
</region>

<region>
hikey=g#2
hivel=127
lokey=g2
loop_end=254052
loop_mode=loop_continuous
loop_start=88325
loop_xfade=36017
lovel=1
lpc=V9uBQScaI8IEBy9CMujrwYYFkkGDlFnBlS0zQVn3g8GwTatBt15iweSbSkCHhgM9ZFwzP1dBXD+QobA+FH3mvyD1jz7rKQY/vtQ1v6wZDUDUqhHA7UaJP/vcTL9t6Uw+
lpc_rms=-21.87
offset=1188
pitch_keycenter=g#2
sample=Baritone_growl_MF_G#2.opus
tune=+11
</region>

<region>
hikey=g#3
hivel=127
lokey=g3
loop_end=246510
loop_mode=loop_continuous
loop_start=85702
loop_xfade=34948
lovel=1
lpc=DdZQQRNE88FSHfpBSMqjwXuHJUHwqIDAOS4hQCOKyMDmDgFB2yniwEbZxkCf94TA2y+PP1TdQUDUBLTA3b+zQAKYO8C9A1k/Um+0v6/vQEB3qUbALO8MQIFQP78uA/e9
lpc_rms=-20.66
offset=957
pitch_keycenter=g#3
sample=Baritone_growl_MF_G#3.opus
tune=+16
</region>
</group>

<group>
amp_veltrack=0
group_label=Group_85-127
lpc_hicc1=127
lpc_locc1=85

<region>
hikey=a#2
hivel=127
lokey=a2
loop_end=236118
loop_mode=loop_continuous
loop_start=82090
loop_xfade=33474
lovel=1
lpc=7OooQQTIwcFNsd9BFMHSwe6fnkGikTTBQtHZQI0cCcH8URdBiH/PwC3Ri0CQhBXAVDlyv2TRB0AWERy/0BafPV6pPb4J0Lk9wOeUvyNkWkDXYmHAosc8QFn9BsAgZcA+
lpc_rms=-15.98
offset=4626
pitch_keycenter=a#2
sample=Baritone_growl_FF_A#2.opus
tune=+20
</region>

<region>
hikey=a#3
hivel=127
lokey=a3
loop_end=251458
loop_mode=loop_continuous
loop_start=87423
loop_xfade=35649
lovel=1
lpc=xjE7QYnI6MERMPlB0YmjweUQBUFR+86+HGHGv9AO7j5HcsS+2W+FPqGHuT+eyR/AWrAgQHF0gL+4em+/mAj9PlKMwj8OHSXAYeACQOWjgL8Hlq69Nsj6P0lPFMDF0jY/
lpc_rms=-18.04
offset=3072
pitch_keycenter=a#3
sample=Baritone_growl_FF_A#3.opus
tune=+13
</region>

<region>
hikey=B4
hivel=127
lokey=a4
loop_end=254220
loop_mode=loop_continuous
loop_start=88383
loop_xfade=36041
lovel=1
lpc=HwvYQLAxX8F8J35BM7dLwTUPF0FmJPDAKozDQHg+isAuC54+zO5QQFLvksCSV31AtWhpwHuhPECZDjjAzOUbQA9rkL9w5CE/K/5Bv06BuD83wFq/UlCjP9+ha7+/ch8/
lpc_rms=-15.79
offset=6134
pitch_keycenter=A#4
sample=Baritone_growl_FF_A#4.opus
tune=+29
</region>

<region>
hivel=127
key=c2
loop_end=130291
loop_mode=loop_continuous
loop_start=47432
loop_xfade=22084
lovel=1
lpc=dP9gQT+8/sH/PQtCpBEAwgNIuUF7yzrBsYvRQCUv5MAVRsdAxDb+vyCfgT4G8Ge+XaX9Pao+u7/4V1NA1MoqwMKAqD+nKL+/ZwHMP1VXmb/UFbo/ewfhvpeHo75Byy2+
lpc_rms=-13.53
offset=2628
sample=Baritone_growl_FF_C2.opus
tune=+9
</region>

<region>
hikey=c3
hivel=127
lokey=b2
loop_end=255762
loop_mode=loop_continuous
loop_start=88919
loop_xfade=36260
lovel=1
lpc=WP4XQTItrcER4rlBG2mbwQePVkE66OnAsPGvQPo7BcG5zBhBoMXvwFpt10CwFqnAOUOrP8kbXT8kwfK+Y5IQP8ymz7/i1wFANmgrwBszfkCRnRbAMAMBPzZJHL+jgJ4+
lpc_rms=-18.64
offset=8879
pitch_keycenter=c3
sample=Baritone_growl_FF_C3.opus
tune=+17
</region>

<region>
hikey=c4
hivel=127
lokey=b3
loop_end=258622
loop_mode=loop_continuous
loop_start=89913
loop_xfade=36665
lovel=1
lpc=Qy0mQV63xsFM0OlBQRnDwaTFfUFjGivBe6gKQdW2E8E2qQdBPjK1wK0KMUD2X3s/m01qwG8Pj0BuNSHAyu5pPI278D9WQMW/7QCcv0k5M0AP5um/9pRZP4KBIL8U/yo+
lpc_rms=-15.57
offset=4746
pitch_keycenter=c4
sample=Baritone_growl_FF_C4.opus
tune=+15
</region>

<region>
hikey=d2
hivel=127
lokey=c#2
loop_end=182338
loop_mode=loop_continuous
loop_start=63392
loop_xfade=25850
lovel=1
lpc=cPxnQb9EBcLSrRNCAakJwrpWzEGnyknB7uysQCTEqMBNuKRAY+rVv4gqkj8HWhzAU4ifP6fb3b7p7bA+0NXBPxkJD8Btt9w/Y1j5v5Y/YkCIvIPA8H02QC8Z9L/KEEk/
lpc_rms=-15.23
offset=4549
pitch_keycenter=d2
sample=Baritone_growl_FF_D2.opus
tune=+3
</region>

<region>
hikey=d3
hivel=127
lokey=c#3
loop_end=237098
loop_mode=loop_continuous
loop_start=82430
loop_xfade=33614
lovel=1
lpc=VggDQSt3k8GZp6JBFkKDwcZDH0F/mavAggSmQGfW9cCIUudA9f2EwPAkC0DEonG/Jlb/voynkj78bho+3ZhaPzPW/b8b46E/Y1PqPtXZ378TqEZAfOwYwEi2Dz+3fGo9
lpc_rms=-18.38
offset=3172
pitch_keycenter=d3
sample=Baritone_growl_FF_D3.opus
tune=+21
</region>

<region>
hikey=d4
hivel=127
lokey=c#4
loop_end=251233
loop_mode=loop_continuous
loop_start=87345
loop_xfade=35617
lovel=1
lpc=zm4nQc4E0cEMOvNBd5PBwUKlgEGXuCrBp+YAQcD9/cCgT8tAoEJjwLEzIkCOIxrAsLi0PwkFlL9tDHZA4CDNwHq62UDFAajA3BXnP+thCD8RC+m9+2RMP8oX77/dlmk/
lpc_rms=-13.71
offset=2257
pitch_keycenter=d4
sample=Baritone_growl_FF_D4.opus
tune=+11
</region>

<region>
hikey=e2
hivel=127
lokey=d#2
loop_end=152308
loop_mode=loop_continuous
loop_start=38796
loop_xfade=23923
lovel=1
lpc=oMw4QZqH2cE2/gBCHWLtwTNtm0GHme3ApubjP7K3hcDP+fZA+K7/wHZe2UDDnk3Aed+3vkPICkDBWcO/8OGBP4GBzr+IMcU/mGQAwIDOFEC7+Ki/U+CVPx5wf7+XVkQ+
lpc_rms=-16.79
pitch_keycenter=e2
sample=Baritone_growl_FF_E2.opus
tune=+17
</region>

<region>
hikey=e3
hivel=127
lokey=d#3
loop_end=249097
loop_mode=loop_continuous
loop_start=86602
loop_xfade=35315
lovel=1
lpc=beIUQfZcrcHub7RB1ut6wcd+2kCk8KW7mT/svZnpsMAS7RJBs7QBwQIduED4HkXAgkahP+6fhb+iUf8+LfWNvUOPiD+tLBfA/HkIQA0ddb+yK7A+peqGP6Ab3r+8Syc/
lpc_rms=-21.54
offset=908
pitch_keycenter=e3
sample=Baritone_growl_FF_E3.opus
tune=+12
</region>

<region>
hikey=e4
hivel=127
lokey=d#4
loop_end=247392
loop_mode=loop_continuous
loop_start=86009
loop_xfade=35073
lovel=1
lpc=fsSsQONWN8HjXD1B5mMNwXxawEATxIHAO6FEQJe8ccD0FktAVxlnv/2foL2DhRu/UjzMPsdSQ76eHp0/R6Pcv9vpoT8f2Ze/gmGGPxNEP79Dr3E/dbcsv41jmT6T0ps9
lpc_rms=-18.36
offset=934
pitch_keycenter=e4
sample=Baritone_growl_FF_E4.opus
tune=-13
</region>

<region>
hikey=f#2
hivel=127
lokey=f2
loop_end=193409
loop_mode=loop_continuous
loop_start=50574
loop_xfade=35105
lovel=1
lpc=19xLQYHO7sEi+ARCAuDcweYegUFSf6vA9OQ+QGo09cAIJR1B/tTewJdaiUDBWr6/nJj/v3XNkEDWeK7AldyuQA/fesA6sEg/zeUwP5dfsT4ebkS/rMCyPwaY/7/8DFw/
lpc_rms=-20.53
offset=3395
pitch_keycenter=f#2
sample=Baritone_growl_FF_F#2.opus
tune=+7
</region>

<region>
hikey=f#3
hivel=127
lokey=f3
loop_end=249611
loop_mode=loop_continuous
loop_start=86780
loop_xfade=35388
lovel=1
lpc=ZG5dQXg1A8KtHQ1CnFzEwVGTK0GyLD7AejgvQOwECMFQGzFByyfvwOufq0DCxY/Au2IHQFJo8j9GQ2HAOdmEQDWec8Da0m0/BcZBvkxaAkACOFfAnKWCQJyhZcDsm70/
lpc_rms=-16.07
offset=7054
pitch_keycenter=f#3
sample=Baritone_growl_FF_F#3.opus
tune=+7
</region>

<region>
hikey=f#4
hivel=127
lokey=f4
loop_end=241828
loop_mode=loop_continuous
loop_start=84075
loop_xfade=34284
lovel=1
lpc=R6CJQEpaFMHr1SVBJ7YFwV8RtEDfZFvA+goIQNcCdL/bece+ybFYP+fHir9MbT8/VooBvYVIQj0shcI8mkTAvh/GIT8HZOW+S7YLvIgbyj2fCRO/4r7cP8Y72b95VRM/
lpc_rms=-18.23
offset=127
pitch_keycenter=f#4
sample=Baritone_growl_FF_F#4.opus
tune=-26
</region>

<region>
hikey=g#2
hivel=127
lokey=g2
loop_end=206819
loop_mode=loop_continuous
loop_start=58880
loop_xfade=30713
lovel=1
lpc=sVgjQbjhu8G2QdVBOBq+wS0HhEHE/f/AcWVUQK1sicBk+I9AEFvEvzTll768j44/4uvmv9rM8z8IypG/dpKPP47Epb90PEw/Zv1yv+RKG0Ayi0HAWExFQLzdEcDhpM8+
lpc_rms=-18.25
offset=3683
pitch_keycenter=g#2
sample=Baritone_growl_FF_G#2.opus
tune=+17
</region>

<region>
hikey=g#3
hivel=127
lokey=g3
loop_end=252091
loop_mode=loop_continuous
loop_start=87643
loop_xfade=35739
lovel=1
lpc=IckzQfdC08HAZOVBgDSmwdoOM0HE9EvAKJSQvzB9Y7+JK0BALJZ8v/5bpbxaDu6+AUlxP2x9T79HTsY/4h0MwBzBHEC5vx3AbDqaP4+nTT9VsKa/2oTTP6vByb/BXiA/
lpc_rms=-19.60
offset=2536
pitch_keycenter=g#3
sample=Baritone_growl_FF_G#3.opus
tune=+12
</region>

<region>
hikey=g#4
hivel=127
lokey=g4
loop_end=217360
loop_mode=loop_continuous
loop_start=107038
loop_xfade=30815
lovel=1
lpc=hTs8Qa6U5sHmaQBCNDezwcZnWEHsBenAQ1jpP+D1l79SlyZAKJHLv6jGbD4Dpf+/VrN7QG+rg8BkrmRAZ+8ewGaGDkD31GDA/9E3QP4c3L41/58+YGtFvcKQg79te5s/
lpc_rms=-16.32
offset=64548
pitch_keycenter=g#4
sample=Baritone_growl_FF_G#4.opus
tune=-16
</region>
</group>